<?xml version="1.0" encoding="utf-8"?>
<!-- Generator: Adobe Illustrator 26.0.1, SVG Export Plug-In . SVG Version: 6.00 Build 0)  -->
<svg version="1.1" id="图层_1" xmlns="http://www.w3.org/2000/svg" xmlns:xlink="http://www.w3.org/1999/xlink" x="0px" y="0px"
	 viewBox="0 0 411.3 376" style="enable-background:new 0 0 411.3 376;" xml:space="preserve">
<style type="text/css">
	.st0{fill:none;}
	.st1{fill:#F9F9F9;stroke:#ECEAEB;stroke-miterlimit:10;}
	.st2{fill:none;stroke:#3A3A3A;stroke-width:2;stroke-linecap:round;stroke-miterlimit:10;}
	.st3{fill:none;stroke:#F84C4C;stroke-width:2;stroke-linecap:round;stroke-miterlimit:10;}
	.st4{enable-background:new    ;}
	.st5{fill:#3A3A3A;}
	.st6{fill:none;stroke:#ECEAEB;stroke-miterlimit:10;}
	.st7{fill:#F84C4C;}
</style>
<g id="图层_2_00000145771463278617286740000002164570615053626787_">
	<g id="图层_1-2">
		<rect y="0" class="st0" width="411.3" height="376"/>
		<path class="st1" d="M31,26.1h55.4c2.1,0,3.8,1.7,3.8,3.8v55.4c0,2.1-1.7,3.8-3.8,3.8H31c-2.1,0-3.8-1.7-3.8-3.8V29.8
			C27.2,27.7,28.9,26.1,31,26.1z"/>
		<path class="st1" d="M162.9,26.1h55.4c2.1,0,3.8,1.7,3.8,3.8v55.4c0,2.1-1.7,3.8-3.8,3.8h-55.4c-2.1,0-3.8-1.7-3.8-3.8V29.8
			C159.1,27.7,160.8,26.1,162.9,26.1z"/>
		<path class="st1" d="M294.7,26.1h55.4c2.1,0,3.8,1.7,3.8,3.8v55.4c0,2.1-1.7,3.8-3.8,3.8h-55.4c-2.1,0-3.8-1.7-3.8-3.8V29.8
			C291,27.7,292.6,26.1,294.7,26.1z"/>
		<path class="st1" d="M162.9,141.4h55.4c2.1,0,3.8,1.7,3.8,3.8v55.4c0,2.1-1.7,3.8-3.8,3.8h-55.4c-2.1,0-3.8-1.7-3.8-3.8v-55.4
			C159.1,143.1,160.8,141.4,162.9,141.4z"/>
		<path class="st2" d="M72.4,53c-1.9-7.6-9.7-12.2-17.3-10.2c-5,1.3-9,5.2-10.2,10.3"/>
		<path class="st2" d="M63.9,70.1c3.6-1.1,6.6-3.8,8.1-7.3"/>
		<path class="st2" d="M44.2,53.1h2c0.9,0,1.6,0.7,1.6,1.6v6.5c0,0.9-0.7,1.6-1.6,1.6h-2c-0.9,0-1.6-0.7-1.6-1.6v-6.5
			C42.7,53.8,43.4,53.1,44.2,53.1z"/>
		<path class="st2" d="M71.1,53.1h2c0.9,0,1.6,0.7,1.6,1.6v6.5c0,0.9-0.7,1.6-1.6,1.6h-2c-0.9,0-1.6-0.7-1.6-1.6v-6.5
			C69.5,53.8,70.2,53.1,71.1,53.1z"/>
		<circle class="st2" cx="61.5" cy="70.6" r="2.1"/>
		<path class="st3" d="M53.5,59.4c0.9,3.1,4.1,4.9,7.2,4c1.9-0.6,3.4-2,4-4"/>
		<path class="st2" d="M186.6,73.5h-3.8c-3.2,0-5.8-2.6-5.8-5.8V47.3c0-3.2,2.6-5.8,5.8-5.8h15.5c3.2,0,5.7,2.6,5.7,5.8v10.2"/>
		<path class="st2" d="M204,67.1v0.6c0,3.2-2.6,5.7-5.8,5.8h-1"/>
		<line class="st3" x1="182.6" y1="52.8" x2="198.5" y2="52.8"/>
		<line class="st2" x1="182.6" y1="57.6" x2="198.5" y2="57.6"/>
		<line class="st3" x1="182.6" y1="62.5" x2="193.3" y2="62.5"/>
		<path class="st2" d="M186.8,68.2l5.2,5.2c0.1,0.1,0.3,0.1,0.4,0c0,0,0,0,0,0L204,61.7"/>
		<path class="st2" d="M314.7,41.5h15.5c3.2,0,5.8,2.6,5.8,5.8v20.5c0,3.2-2.6,5.8-5.8,5.8h-15.5c-3.2,0-5.8-2.6-5.8-5.8V47.3
			C308.9,44.1,311.5,41.5,314.7,41.5z"/>
		<path class="st2" d="M318.1,65.2l-4.1,0.5c-0.1,0-0.2-0.1-0.2-0.1c0,0,0,0,0,0l0.5-4.1c0-0.3,0.2-0.5,0.4-0.7L326,49.5
			c1.1-1.1,3-1.1,4.1,0c0,0,0,0,0,0l0,0c1.1,1.1,1.1,3,0,4.1c0,0,0,0,0,0l-11.3,11.2C318.7,65.1,318.4,65.2,318.1,65.2z"/>
		<line class="st2" x1="324.5" y1="51.1" x2="328.6" y2="55.2"/>
		<line class="st2" x1="322.9" y1="66.4" x2="331" y2="66.4"/>
		<line class="st3" x1="325.9" y1="63.3" x2="331" y2="63.3"/>
		<line class="st2" x1="328.9" y1="60.2" x2="331" y2="60.2"/>
		<path class="st3" d="M183.6,168c0.9-2,2.7-3.4,4.8-4"/>
		<path class="st2" d="M188.1,160.5c0-0.1,0-0.2,0-0.2c0.1-1.3,1.2-2.3,2.6-2.3c1.2,0.1,2.2,1,2.3,2.3c0,0.1,0,0.2,0,0.2"/>
		<path class="st2" d="M179.4,168.3c-0.4,1.2-0.6,2.5-0.6,3.7v3.9c0,1.4-0.6,2.7-1.6,3.6l0,0c-1,0.9-1.6,2.2-1.6,3.6l0,0
			c0,0.4,0.3,0.7,0.7,0.7h28.6c0.4,0,0.7-0.3,0.7-0.7l0,0c0-1.4-0.6-2.7-1.6-3.6l0,0c-1-0.9-1.6-2.2-1.6-3.6V172
			c0-5.5-3.9-10.3-9.3-11.5"/>
		<path class="st2" d="M182.7,163.3c-0.7,0.7-1.4,1.4-1.9,2.2"/>
		<path class="st2" d="M188.1,160.5c-1,0.2-1.9,0.5-2.8,0.9"/>
		<path class="st2" d="M194.7,183.7c-0.1,2.3-2.1,4.1-4.3,3.9c-2.1-0.1-3.8-1.8-3.9-3.9"/>
		<g class="st4">
			<path class="st5" d="M34.7,106.1V100h3.8v0.9h-2.9v1.9h2.6v0.8h-2.6v2.5H34.7z"/>
			<path class="st5" d="M39.5,100.2c0-0.3,0.3-0.6,0.6-0.6s0.6,0.2,0.6,0.6c0,0.3-0.2,0.6-0.6,0.6S39.5,100.5,39.5,100.2z
				 M39.6,101.5h0.9v4.6h-0.9V101.5z"/>
			<path class="st5" d="M41.9,99.7h0.9v6.4h-0.9V99.7z"/>
			<path class="st5" d="M48.1,104.9c-0.2,0.8-0.9,1.3-2,1.3c-1.3,0-2.1-0.9-2.1-2.4s0.8-2.4,2.1-2.4c1.3,0,2.1,0.9,2.1,2.3v0.3h-3.3
				v0.1c0,0.8,0.5,1.3,1.2,1.3c0.6,0,0.9-0.2,1.1-0.6H48.1z M44.9,103.4h2.3c0-0.7-0.5-1.2-1.1-1.2
				C45.4,102.2,44.9,102.7,44.9,103.4z"/>
			<path class="st5" d="M51.4,104.8c0-0.8,0.6-1.3,1.7-1.4l1.3-0.1V103c0-0.5-0.3-0.8-0.9-0.8c-0.5,0-0.9,0.2-1,0.5h-0.9
				c0.1-0.8,0.8-1.3,1.9-1.3c1.2,0,1.8,0.6,1.8,1.6v3.2h-0.9v-0.6h-0.1c-0.3,0.5-0.8,0.7-1.4,0.7C52,106.2,51.4,105.7,51.4,104.8z
				 M54.3,104.4v-0.4l-1.1,0.1c-0.6,0-0.9,0.3-0.9,0.7c0,0.4,0.4,0.7,0.9,0.7C53.8,105.4,54.3,105,54.3,104.4z"/>
			<path class="st5" d="M56.5,101.5h0.9v0.7h0.1c0.2-0.5,0.7-0.8,1.4-0.8c1,0,1.6,0.6,1.6,1.7v3h-0.9v-2.8c0-0.7-0.3-1.1-1-1.1
				c-0.7,0-1.1,0.5-1.1,1.2v2.7h-0.9V101.5z"/>
			<path class="st5" d="M63.8,104.8c0-0.8,0.6-1.3,1.7-1.4l1.3-0.1V103c0-0.5-0.3-0.8-0.9-0.8c-0.5,0-0.9,0.2-1,0.5H64
				c0.1-0.8,0.8-1.3,1.9-1.3c1.2,0,1.8,0.6,1.8,1.6v3.2h-0.9v-0.6h-0.1c-0.3,0.5-0.8,0.7-1.4,0.7C64.5,106.2,63.8,105.7,63.8,104.8z
				 M66.8,104.4v-0.4l-1.1,0.1c-0.6,0-0.9,0.3-0.9,0.7c0,0.4,0.4,0.7,0.9,0.7C66.3,105.4,66.8,105,66.8,104.4z"/>
		</g>
		<g class="st4">
			<path class="st5" d="M69.3,102.3h-0.8v-0.8h0.8V101c0-0.9,0.5-1.4,1.4-1.4c0.2,0,0.4,0,0.5,0v0.7c-0.1,0-0.2,0-0.4,0
				c-0.5,0-0.7,0.2-0.7,0.7v0.4h1v0.8h-1v3.8h-0.9V102.3z"/>
		</g>
		<g class="st4">
			<path class="st5" d="M73.5,100.4v1.2h1v0.8h-1v2.4c0,0.5,0.2,0.7,0.7,0.7c0.1,0,0.2,0,0.3,0v0.8c-0.1,0-0.3,0-0.5,0
				c-1,0-1.4-0.4-1.4-1.2v-2.6h-0.7v-0.8h0.7v-1.2H73.5z"/>
		</g>
		<g class="st4">
			<path class="st5" d="M79.5,104.9c-0.2,0.8-0.9,1.3-2,1.3c-1.3,0-2.1-0.9-2.1-2.4s0.8-2.4,2.1-2.4c1.3,0,2.1,0.9,2.1,2.3v0.3h-3.3
				v0.1c0,0.8,0.5,1.3,1.2,1.3c0.6,0,0.9-0.2,1.1-0.6H79.5z M76.3,103.4h2.3c0-0.7-0.5-1.2-1.1-1.2
				C76.8,102.2,76.3,102.7,76.3,103.4z"/>
			<path class="st5" d="M80.6,101.5h0.9v0.7h0.1c0.1-0.5,0.6-0.8,1.2-0.8c0.1,0,0.3,0,0.4,0v0.9c-0.1,0-0.3-0.1-0.5-0.1
				c-0.7,0-1.2,0.4-1.2,1.1v2.7h-0.9V101.5z"/>
		</g>
		<g class="st4">
			<path class="st5" d="M37.9,111.1c1,0,1.7,0.5,1.8,1.3h-0.9c-0.1-0.3-0.4-0.6-0.9-0.6c-0.5,0-0.9,0.2-0.9,0.6
				c0,0.3,0.2,0.5,0.7,0.6l0.8,0.2c0.9,0.2,1.3,0.6,1.3,1.3c0,0.9-0.8,1.5-1.9,1.5c-1.1,0-1.8-0.5-1.9-1.3h0.9
				c0.1,0.4,0.5,0.6,1,0.6c0.6,0,1-0.3,1-0.6c0-0.3-0.2-0.5-0.7-0.6l-0.8-0.2c-0.9-0.2-1.3-0.6-1.3-1.3
				C36.1,111.7,36.9,111.1,37.9,111.1z"/>
			<path class="st5" d="M40.7,114.5c0-0.8,0.6-1.3,1.7-1.4l1.3-0.1v-0.4c0-0.5-0.3-0.8-0.9-0.8c-0.5,0-0.9,0.2-1,0.5h-0.9
				c0.1-0.8,0.8-1.3,1.9-1.3c1.2,0,1.8,0.6,1.8,1.6v3.2h-0.9v-0.6h-0.1c-0.3,0.5-0.8,0.7-1.4,0.7C41.3,115.9,40.7,115.3,40.7,114.5z
				 M43.6,114.1v-0.4l-1.1,0.1c-0.6,0-0.9,0.3-0.9,0.7c0,0.4,0.4,0.7,0.9,0.7C43.1,115.1,43.6,114.7,43.6,114.1z"/>
			<path class="st5" d="M45.9,109.4h0.9v6.4h-0.9V109.4z"/>
			<path class="st5" d="M52.1,114.5c-0.2,0.8-0.9,1.3-2,1.3c-1.3,0-2.1-0.9-2.1-2.4s0.8-2.4,2.1-2.4c1.3,0,2.1,0.9,2.1,2.3v0.3h-3.3
				v0.1c0,0.8,0.5,1.3,1.2,1.3c0.6,0,0.9-0.2,1.1-0.6H52.1z M48.8,113.1h2.3c0-0.7-0.5-1.2-1.1-1.2
				C49.4,111.9,48.9,112.3,48.8,113.1z"/>
			<path class="st5" d="M54.9,111.1c1,0,1.7,0.5,1.8,1.3h-0.9c-0.1-0.3-0.4-0.6-0.9-0.6c-0.5,0-0.9,0.2-0.9,0.6
				c0,0.3,0.2,0.5,0.7,0.6l0.8,0.2c0.9,0.2,1.3,0.6,1.3,1.3c0,0.9-0.8,1.5-1.9,1.5c-1.1,0-1.8-0.5-1.9-1.3h0.9
				c0.1,0.4,0.5,0.6,1,0.6c0.6,0,1-0.3,1-0.6c0-0.3-0.2-0.5-0.7-0.6l-0.8-0.2c-0.9-0.2-1.3-0.6-1.3-1.3
				C53.1,111.7,53.8,111.1,54.9,111.1z"/>
			<path class="st5" d="M63.3,112.7c-0.1-0.4-0.5-0.8-1.1-0.8c-0.8,0-1.2,0.6-1.2,1.6c0,1,0.5,1.6,1.2,1.6c0.6,0,1-0.3,1.1-0.8h0.9
				c-0.1,0.9-0.8,1.6-2,1.6c-1.3,0-2.2-0.9-2.2-2.4c0-1.5,0.8-2.4,2.2-2.4c1.2,0,1.9,0.7,2,1.6H63.3z"/>
			<path class="st5" d="M65.2,109.4h0.9v6.4h-0.9V109.4z"/>
			<path class="st5" d="M67.3,114.5c0-0.8,0.6-1.3,1.7-1.4l1.3-0.1v-0.4c0-0.5-0.3-0.8-0.9-0.8c-0.5,0-0.9,0.2-1,0.5h-0.9
				c0.1-0.8,0.8-1.3,1.9-1.3c1.2,0,1.8,0.6,1.8,1.6v3.2h-0.9v-0.6h-0.1c-0.3,0.5-0.8,0.7-1.4,0.7C67.9,115.9,67.3,115.3,67.3,114.5z
				 M70.2,114.1v-0.4l-1.1,0.1c-0.6,0-0.9,0.3-0.9,0.7c0,0.4,0.4,0.7,0.9,0.7C69.7,115.1,70.2,114.7,70.2,114.1z"/>
			<path class="st5" d="M72.3,109.8c0-0.3,0.3-0.6,0.6-0.6s0.6,0.2,0.6,0.6c0,0.3-0.2,0.6-0.6,0.6S72.3,110.1,72.3,109.8z
				 M72.4,111.2h0.9v4.6h-0.9V111.2z"/>
			<path class="st5" d="M74.7,111.2h0.9v0.7h0.1c0.2-0.5,0.7-0.8,1.3-0.8c0.6,0,1.1,0.3,1.3,0.8h0.1c0.2-0.5,0.8-0.8,1.4-0.8
				c0.9,0,1.5,0.6,1.5,1.5v3.2h-0.9v-2.9c0-0.6-0.3-0.9-0.9-0.9c-0.6,0-1,0.4-1,1v2.9h-0.9v-3c0-0.5-0.3-0.8-0.9-0.8
				c-0.6,0-1,0.5-1,1v2.8h-0.9V111.2z"/>
		</g>
		<g class="st4">
			<path class="st5" d="M146.8,104.5c0.1,0.6,0.6,1,1.5,1c0.8,0,1.3-0.4,1.3-0.9c0-0.5-0.4-0.7-1.2-0.9l-0.8-0.2
				c-1.1-0.3-1.6-0.8-1.6-1.7c0-1.1,0.9-1.8,2.2-1.8c1.2,0,2.2,0.7,2.2,1.8h-0.9c-0.1-0.6-0.6-0.9-1.3-0.9c-0.8,0-1.3,0.4-1.3,0.9
				c0,0.4,0.3,0.7,1.1,0.9l0.7,0.2c1.3,0.3,1.8,0.8,1.8,1.7c0,1.2-0.9,1.9-2.4,1.9c-1.4,0-2.3-0.7-2.3-1.8H146.8z"/>
			<path class="st5" d="M155.6,106.1h-0.9v-0.7h-0.1c-0.2,0.5-0.7,0.8-1.4,0.8c-1,0-1.6-0.6-1.6-1.7v-3h0.9v2.8c0,0.7,0.3,1.1,1,1.1
				c0.7,0,1.1-0.4,1.1-1.2v-2.7h0.9V106.1z"/>
			<path class="st5" d="M157.9,105.4L157.9,105.4l-0.1,0.7h-0.9v-6.4h0.9v2.5h0.1c0.2-0.5,0.8-0.8,1.4-0.8c1.2,0,1.9,0.9,1.9,2.4
				c0,1.5-0.7,2.4-1.9,2.4C158.7,106.2,158.2,105.9,157.9,105.4z M157.8,103.8c0,1,0.5,1.6,1.2,1.6c0.8,0,1.2-0.6,1.2-1.6
				c0-1-0.5-1.6-1.2-1.6C158.3,102.3,157.8,102.9,157.8,103.8z"/>
			<path class="st5" d="M162.3,101.5h0.9v0.7h0.1c0.2-0.5,0.7-0.8,1.3-0.8c0.6,0,1.1,0.3,1.3,0.8h0.1c0.2-0.5,0.8-0.8,1.4-0.8
				c0.9,0,1.5,0.6,1.5,1.5v3.2h-0.9v-2.9c0-0.6-0.3-0.9-0.9-0.9c-0.6,0-1,0.4-1,1v2.9h-0.9v-3c0-0.5-0.3-0.8-0.9-0.8
				c-0.6,0-1,0.5-1,1v2.8h-0.9V101.5z"/>
			<path class="st5" d="M170,100.2c0-0.3,0.3-0.6,0.6-0.6s0.6,0.2,0.6,0.6c0,0.3-0.2,0.6-0.6,0.6S170,100.5,170,100.2z M170.1,101.5
				h0.9v4.6h-0.9V101.5z"/>
			<path class="st5" d="M173.6,100.4v1.2h1v0.8h-1v2.4c0,0.5,0.2,0.7,0.7,0.7c0.1,0,0.2,0,0.3,0v0.8c-0.1,0-0.3,0-0.5,0
				c-1,0-1.4-0.4-1.4-1.2v-2.6h-0.7v-0.8h0.7v-1.2H173.6z"/>
		</g>
		<g class="st4">
			<path class="st5" d="M179.3,100.4v1.2h1v0.8h-1v2.4c0,0.5,0.2,0.7,0.7,0.7c0.1,0,0.2,0,0.3,0v0.8c-0.1,0-0.3,0-0.5,0
				c-1,0-1.4-0.4-1.4-1.2v-2.6h-0.7v-0.8h0.7v-1.2H179.3z"/>
		</g>
		<g class="st4">
			<path class="st5" d="M181,103.8c0-1.5,0.8-2.4,2.2-2.4c1.3,0,2.2,0.9,2.2,2.4c0,1.5-0.8,2.4-2.2,2.4
				C181.9,106.2,181,105.3,181,103.8z M184.5,103.8c0-1-0.4-1.6-1.2-1.6c-0.8,0-1.2,0.6-1.2,1.6c0,1,0.4,1.6,1.2,1.6
				C184,105.4,184.5,104.8,184.5,103.8z"/>
			<path class="st5" d="M189.9,106.1h-1V100h2.4c1.2,0,2,0.7,2,1.9c0,0.8-0.4,1.5-1.2,1.7l1.4,2.5h-1.1l-1.2-2.3h-1.3V106.1z
				 M189.9,103h1.4c0.7,0,1.2-0.4,1.2-1.1c0-0.7-0.4-1.1-1.2-1.1h-1.3V103z"/>
			<path class="st5" d="M198.7,106.1h-3.9V100h3.9v0.9h-2.9v1.7h2.8v0.8h-2.8v1.8h2.9V106.1z"/>
		</g>
		<g class="st4">
			<path class="st5" d="M202.2,106.1h-0.9l-1.7-6.1h1l1.1,4.7h0.1l1.3-4.7h0.9l1.3,4.7h0.1l1.1-4.7h1l-1.7,6.1h-0.9l-1.3-4.5h-0.1
				L202.2,106.1z"/>
		</g>
		<g class="st4">
			<path class="st5" d="M211.5,104.5h-2.3l-0.6,1.6h-1l2.2-6.1h1l2.2,6.1h-1L211.5,104.5z M209.4,103.7h1.8l-0.9-2.6h-0.1
				L209.4,103.7z"/>
			<path class="st5" d="M216.1,104.8c0-0.8,0.6-1.3,1.7-1.4l1.3-0.1V103c0-0.5-0.3-0.8-0.9-0.8c-0.5,0-0.9,0.2-1,0.5h-0.9
				c0.1-0.8,0.8-1.3,1.9-1.3c1.2,0,1.8,0.6,1.8,1.6v3.2h-0.9v-0.6H219c-0.3,0.5-0.8,0.7-1.4,0.7
				C216.8,106.2,216.1,105.7,216.1,104.8z M219.1,104.4v-0.4l-1.1,0.1c-0.6,0-0.9,0.3-0.9,0.7c0,0.4,0.4,0.7,0.9,0.7
				C218.6,105.4,219.1,105,219.1,104.4z"/>
		</g>
		<g class="st4">
			<path class="st5" d="M221.6,102.3h-0.8v-0.8h0.8V101c0-0.9,0.5-1.4,1.4-1.4c0.2,0,0.4,0,0.5,0v0.7c-0.1,0-0.2,0-0.4,0
				c-0.5,0-0.7,0.2-0.7,0.7v0.4h1v0.8h-1v3.8h-0.9V102.3z"/>
		</g>
		<g class="st4">
			<path class="st5" d="M225.8,100.4v1.2h1v0.8h-1v2.4c0,0.5,0.2,0.7,0.7,0.7c0.1,0,0.2,0,0.3,0v0.8c-0.1,0-0.3,0-0.5,0
				c-1,0-1.4-0.4-1.4-1.2v-2.6h-0.7v-0.8h0.7v-1.2H225.8z"/>
		</g>
		<g class="st4">
			<path class="st5" d="M231.7,104.9c-0.2,0.8-0.9,1.3-2,1.3c-1.3,0-2.1-0.9-2.1-2.4s0.8-2.4,2.1-2.4c1.3,0,2.1,0.9,2.1,2.3v0.3
				h-3.3v0.1c0,0.8,0.5,1.3,1.2,1.3c0.6,0,0.9-0.2,1.1-0.6H231.7z M228.5,103.4h2.3c0-0.7-0.5-1.2-1.1-1.2
				C229.1,102.2,228.6,102.7,228.5,103.4z"/>
			<path class="st5" d="M232.9,101.5h0.9v0.7h0.1c0.1-0.5,0.6-0.8,1.2-0.8c0.1,0,0.3,0,0.4,0v0.9c-0.1,0-0.3-0.1-0.5-0.1
				c-0.7,0-1.2,0.4-1.2,1.1v2.7h-0.9V101.5z"/>
		</g>
		<g class="st4">
			<path class="st5" d="M141.1,111.1c1,0,1.7,0.5,1.8,1.3H142c-0.1-0.3-0.4-0.6-0.9-0.6c-0.5,0-0.9,0.2-0.9,0.6
				c0,0.3,0.2,0.5,0.7,0.6l0.8,0.2c0.9,0.2,1.3,0.6,1.3,1.3c0,0.9-0.8,1.5-1.9,1.5c-1.1,0-1.8-0.5-1.9-1.3h0.9
				c0.1,0.4,0.5,0.6,1,0.6c0.6,0,1-0.3,1-0.6c0-0.3-0.2-0.5-0.7-0.6l-0.8-0.2c-0.9-0.2-1.3-0.6-1.3-1.3
				C139.3,111.7,140.1,111.1,141.1,111.1z"/>
			<path class="st5" d="M143.8,114.5c0-0.8,0.6-1.3,1.7-1.4l1.3-0.1v-0.4c0-0.5-0.3-0.8-0.9-0.8c-0.5,0-0.9,0.2-1,0.5H144
				c0.1-0.8,0.8-1.3,1.9-1.3c1.2,0,1.8,0.6,1.8,1.6v3.2h-0.9v-0.6h-0.1c-0.3,0.5-0.8,0.7-1.4,0.7
				C144.5,115.9,143.8,115.3,143.8,114.5z M146.8,114.1v-0.4l-1.1,0.1c-0.6,0-0.9,0.3-0.9,0.7c0,0.4,0.4,0.7,0.9,0.7
				C146.3,115.1,146.8,114.7,146.8,114.1z"/>
			<path class="st5" d="M149.1,109.4h0.9v6.4h-0.9V109.4z"/>
			<path class="st5" d="M155.2,114.5c-0.2,0.8-0.9,1.3-2,1.3c-1.3,0-2.1-0.9-2.1-2.4s0.8-2.4,2.1-2.4c1.3,0,2.1,0.9,2.1,2.3v0.3H152
				v0.1c0,0.8,0.5,1.3,1.2,1.3c0.6,0,0.9-0.2,1.1-0.6H155.2z M152,113.1h2.3c0-0.7-0.5-1.2-1.1-1.2
				C152.5,111.9,152.1,112.3,152,113.1z"/>
			<path class="st5" d="M158.1,111.1c1,0,1.7,0.5,1.8,1.3H159c-0.1-0.3-0.4-0.6-0.9-0.6c-0.5,0-0.9,0.2-0.9,0.6
				c0,0.3,0.2,0.5,0.7,0.6l0.8,0.2c0.9,0.2,1.3,0.6,1.3,1.3c0,0.9-0.8,1.5-1.9,1.5c-1.1,0-1.8-0.5-1.9-1.3h0.9
				c0.1,0.4,0.5,0.6,1,0.6c0.6,0,1-0.3,1-0.6c0-0.3-0.2-0.5-0.7-0.6l-0.8-0.2c-0.9-0.2-1.3-0.6-1.3-1.3
				C156.3,111.7,157,111.1,158.1,111.1z"/>
			<path class="st5" d="M166.5,112.7c-0.1-0.4-0.5-0.8-1.1-0.8c-0.8,0-1.2,0.6-1.2,1.6c0,1,0.5,1.6,1.2,1.6c0.6,0,1-0.3,1.1-0.8h0.9
				c-0.1,0.9-0.8,1.6-2,1.6c-1.3,0-2.2-0.9-2.2-2.4c0-1.5,0.8-2.4,2.2-2.4c1.2,0,1.9,0.7,2,1.6H166.5z"/>
			<path class="st5" d="M172.3,114.5c-0.2,0.8-0.9,1.3-2,1.3c-1.3,0-2.1-0.9-2.1-2.4s0.8-2.4,2.1-2.4c1.3,0,2.1,0.9,2.1,2.3v0.3
				h-3.3v0.1c0,0.8,0.5,1.3,1.2,1.3c0.6,0,0.9-0.2,1.1-0.6H172.3z M169.1,113.1h2.3c0-0.7-0.5-1.2-1.1-1.2
				C169.6,111.9,169.1,112.3,169.1,113.1z"/>
			<path class="st5" d="M173.4,111.2h0.9v0.7h0.1c0.2-0.5,0.7-0.8,1.4-0.8c1,0,1.6,0.6,1.6,1.7v3h-0.9V113c0-0.7-0.3-1.1-1-1.1
				s-1.1,0.5-1.1,1.2v2.7h-0.9V111.2z"/>
		</g>
		<g class="st4">
			<path class="st5" d="M179.9,110v1.2h1v0.8h-1v2.4c0,0.5,0.2,0.7,0.7,0.7c0.1,0,0.2,0,0.3,0v0.8c-0.1,0-0.3,0-0.5,0
				c-1,0-1.4-0.4-1.4-1.2V112h-0.7v-0.8h0.7V110H179.9z"/>
		</g>
		<g class="st4">
			<path class="st5" d="M185.8,114.5c-0.2,0.8-0.9,1.3-2,1.3c-1.3,0-2.1-0.9-2.1-2.4s0.8-2.4,2.1-2.4c1.3,0,2.1,0.9,2.1,2.3v0.3
				h-3.3v0.1c0,0.8,0.5,1.3,1.2,1.3c0.6,0,0.9-0.2,1.1-0.6H185.8z M182.6,113.1h2.3c0-0.7-0.5-1.2-1.1-1.2
				C183.1,111.9,182.6,112.3,182.6,113.1z"/>
			<path class="st5" d="M186.9,111.2h0.9v0.7h0.1c0.1-0.5,0.6-0.8,1.2-0.8c0.1,0,0.3,0,0.4,0v0.9c-0.1,0-0.3-0.1-0.5-0.1
				c-0.7,0-1.2,0.4-1.2,1.1v2.7h-0.9V111.2z"/>
		</g>
		<g class="st4">
			<path class="st5" d="M193.1,112h-0.8v-0.8h0.8v-0.5c0-0.9,0.5-1.4,1.4-1.4c0.2,0,0.4,0,0.5,0v0.7c-0.1,0-0.2,0-0.4,0
				c-0.5,0-0.7,0.2-0.7,0.7v0.4h1v0.8h-1v3.8h-0.9V112z"/>
		</g>
		<g class="st4">
			<path class="st5" d="M195.7,113.5c0-1.5,0.8-2.4,2.2-2.4c1.3,0,2.2,0.9,2.2,2.4c0,1.5-0.8,2.4-2.2,2.4
				C196.5,115.9,195.7,115,195.7,113.5z M199.1,113.5c0-1-0.5-1.6-1.2-1.6c-0.8,0-1.2,0.6-1.2,1.6c0,1,0.4,1.6,1.2,1.6
				C198.6,115.1,199.1,114.5,199.1,113.5z"/>
			<path class="st5" d="M201.1,111.2h0.9v0.7h0.1c0.1-0.5,0.6-0.8,1.2-0.8c0.1,0,0.3,0,0.4,0v0.9c-0.1,0-0.3-0.1-0.5-0.1
				c-0.7,0-1.2,0.4-1.2,1.1v2.7h-0.9V111.2z"/>
			<path class="st5" d="M206.7,114.5c0-0.8,0.6-1.3,1.7-1.4l1.3-0.1v-0.4c0-0.5-0.3-0.8-0.9-0.8c-0.5,0-0.9,0.2-1,0.5h-0.9
				c0.1-0.8,0.8-1.3,1.9-1.3c1.2,0,1.8,0.6,1.8,1.6v3.2h-0.9v-0.6h-0.1c-0.3,0.5-0.8,0.7-1.4,0.7
				C207.4,115.9,206.7,115.3,206.7,114.5z M209.7,114.1v-0.4l-1.1,0.1c-0.6,0-0.9,0.3-0.9,0.7c0,0.4,0.4,0.7,0.9,0.7
				C209.2,115.1,209.7,114.7,209.7,114.1z"/>
			<path class="st5" d="M216.2,113.5c0,1.5-0.7,2.4-1.9,2.4c-0.7,0-1.2-0.3-1.4-0.8h-0.1v2.2h-0.9v-6.2h0.9v0.8h0.1
				c0.3-0.5,0.8-0.8,1.5-0.8C215.4,111.1,216.2,112,216.2,113.5z M215.3,113.5c0-1-0.5-1.6-1.2-1.6c-0.8,0-1.2,0.6-1.2,1.6
				c0,1,0.5,1.6,1.2,1.6C214.8,115,215.3,114.5,215.3,113.5z"/>
			<path class="st5" d="M221.6,113.5c0,1.5-0.7,2.4-1.9,2.4c-0.7,0-1.2-0.3-1.4-0.8h-0.1v2.2h-0.9v-6.2h0.9v0.8h0.1
				c0.3-0.5,0.8-0.8,1.5-0.8C220.9,111.1,221.6,112,221.6,113.5z M220.7,113.5c0-1-0.5-1.6-1.2-1.6c-0.8,0-1.2,0.6-1.2,1.6
				c0,1,0.5,1.6,1.2,1.6C220.2,115,220.7,114.5,220.7,113.5z"/>
		</g>
		<g class="st4">
			<path class="st5" d="M222.7,111.2h0.9v0.7h0.1c0.1-0.5,0.6-0.8,1.2-0.8c0.1,0,0.3,0,0.4,0v0.9c-0.1,0-0.3-0.1-0.5-0.1
				c-0.7,0-1.2,0.4-1.2,1.1v2.7h-0.9V111.2z"/>
		</g>
		<g class="st4">
			<path class="st5" d="M225.8,113.5c0-1.5,0.8-2.4,2.2-2.4c1.3,0,2.2,0.9,2.2,2.4c0,1.5-0.8,2.4-2.2,2.4
				C226.6,115.9,225.8,115,225.8,113.5z M229.2,113.5c0-1-0.4-1.6-1.2-1.6c-0.8,0-1.2,0.6-1.2,1.6c0,1,0.4,1.6,1.2,1.6
				C228.8,115.1,229.2,114.5,229.2,113.5z"/>
		</g>
		<g class="st4">
			<path class="st5" d="M233.3,115.8h-1l-1.7-4.6h1l1.1,3.6h0.1l1.1-3.6h1L233.3,115.8z"/>
		</g>
		<g class="st4">
			<path class="st5" d="M235.5,114.5c0-0.8,0.6-1.3,1.7-1.4l1.3-0.1v-0.4c0-0.5-0.3-0.8-0.9-0.8c-0.5,0-0.9,0.2-1,0.5h-0.9
				c0.1-0.8,0.8-1.3,1.9-1.3c1.2,0,1.8,0.6,1.8,1.6v3.2h-0.9v-0.6h-0.1c-0.3,0.5-0.8,0.7-1.4,0.7
				C236.1,115.9,235.5,115.3,235.5,114.5z M238.5,114.1v-0.4l-1.1,0.1c-0.6,0-0.9,0.3-0.9,0.7c0,0.4,0.4,0.7,0.9,0.7
				C237.9,115.1,238.5,114.7,238.5,114.1z"/>
			<path class="st5" d="M240.7,109.4h0.9v6.4h-0.9V109.4z"/>
		</g>
		<g class="st4">
			<path class="st5" d="M304.3,106.1V100h3.8v0.9h-2.9v1.9h2.6v0.8h-2.6v2.5H304.3z"/>
			<path class="st5" d="M309.1,100.2c0-0.3,0.2-0.6,0.6-0.6c0.3,0,0.6,0.2,0.6,0.6c0,0.3-0.2,0.6-0.6,0.6
				C309.3,100.7,309.1,100.5,309.1,100.2z M309.2,101.5h0.9v4.6h-0.9V101.5z"/>
			<path class="st5" d="M311.5,99.7h0.9v6.4h-0.9V99.7z"/>
			<path class="st5" d="M313.8,99.7h0.9v6.4h-0.9V99.7z"/>
			<path class="st5" d="M318.4,100.2c0-0.3,0.2-0.6,0.6-0.6c0.3,0,0.6,0.2,0.6,0.6c0,0.3-0.2,0.6-0.6,0.6
				C318.6,100.7,318.4,100.5,318.4,100.2z M318.5,101.5h0.9v4.6h-0.9V101.5z"/>
			<path class="st5" d="M320.7,101.5h0.9v0.7h0.1c0.2-0.5,0.7-0.8,1.4-0.8c1,0,1.6,0.6,1.6,1.7v3h-0.9v-2.8c0-0.7-0.3-1.1-1-1.1
				c-0.7,0-1.1,0.5-1.1,1.2v2.7h-0.9V101.5z"/>
			<path class="st5" d="M329.5,100.4v1.2h1v0.8h-1v2.4c0,0.5,0.2,0.7,0.7,0.7c0.1,0,0.2,0,0.3,0v0.8c-0.1,0-0.3,0-0.5,0
				c-1,0-1.4-0.4-1.4-1.2v-2.6h-0.7v-0.8h0.7v-1.2H329.5z"/>
			<path class="st5" d="M331.7,99.7h0.9v2.5h0.1c0.2-0.5,0.7-0.8,1.4-0.8c1,0,1.6,0.6,1.6,1.7v3h-0.9v-2.8c0-0.7-0.3-1.1-1-1.1
				c-0.7,0-1.2,0.5-1.2,1.2v2.7h-0.9V99.7z"/>
			<path class="st5" d="M340.8,104.9c-0.2,0.8-0.9,1.3-2,1.3c-1.3,0-2.1-0.9-2.1-2.4s0.8-2.4,2.1-2.4c1.3,0,2.1,0.9,2.1,2.3v0.3
				h-3.3v0.1c0,0.8,0.5,1.3,1.2,1.3c0.6,0,0.9-0.2,1.1-0.6H340.8z M337.6,103.4h2.3c0-0.7-0.5-1.2-1.1-1.2S337.7,102.7,337.6,103.4z
				"/>
		</g>
		<g class="st4">
			<path class="st5" d="M303.3,115.8h-1v-6.1h2.4c1.2,0,2,0.7,2,1.9c0,0.8-0.4,1.5-1.2,1.7l1.4,2.5h-1.1l-1.2-2.3h-1.3V115.8z
				 M303.3,112.6h1.4c0.7,0,1.2-0.4,1.2-1.1c0-0.7-0.4-1.1-1.2-1.1h-1.3V112.6z"/>
			<path class="st5" d="M313.5,115.8v-4.4h-0.1l-1.8,4.2h-0.7l-1.8-4.2h-0.1v4.4h-0.9v-6.1h1.1l1.9,4.6h0.1l2-4.6h1.1v6.1H313.5z"/>
			<path class="st5" d="M319.3,114.2H317l-0.6,1.6h-1l2.2-6.1h1l2.2,6.1h-1L319.3,114.2z M317.2,113.4h1.8l-0.9-2.6h-0.1
				L317.2,113.4z"/>
		</g>
		<g class="st4">
			<path class="st5" d="M324.5,112h-0.8v-0.8h0.8v-0.5c0-0.9,0.5-1.4,1.4-1.4c0.2,0,0.4,0,0.5,0v0.7c-0.1,0-0.2,0-0.4,0
				c-0.5,0-0.7,0.2-0.7,0.7v0.4h1v0.8h-1v3.8h-0.9V112z"/>
		</g>
		<g class="st4">
			<path class="st5" d="M327.1,113.5c0-1.5,0.8-2.4,2.2-2.4c1.3,0,2.2,0.9,2.2,2.4c0,1.5-0.8,2.4-2.2,2.4
				C327.9,115.9,327.1,115,327.1,113.5z M330.5,113.5c0-1-0.4-1.6-1.2-1.6c-0.8,0-1.2,0.6-1.2,1.6c0,1,0.4,1.6,1.2,1.6
				C330.1,115.1,330.5,114.5,330.5,113.5z"/>
		</g>
		<g class="st4">
			<path class="st5" d="M332.6,111.2h0.9v0.7h0.1c0.1-0.5,0.6-0.8,1.2-0.8c0.1,0,0.3,0,0.4,0v0.9c-0.1,0-0.3-0.1-0.5-0.1
				c-0.7,0-1.2,0.4-1.2,1.1v2.7h-0.9V111.2z"/>
		</g>
		<g class="st4">
			<path class="st5" d="M336.1,111.2h0.9v0.7h0.1c0.2-0.5,0.7-0.8,1.3-0.8c0.6,0,1.1,0.3,1.3,0.8h0.1c0.2-0.5,0.8-0.8,1.4-0.8
				c0.9,0,1.5,0.6,1.5,1.5v3.2h-0.9v-2.9c0-0.6-0.3-0.9-0.9-0.9c-0.6,0-1,0.4-1,1v2.9h-0.9v-3c0-0.5-0.3-0.8-0.9-0.8
				c-0.6,0-1,0.5-1,1v2.8h-0.9V111.2z"/>
		</g>
		<g class="st4">
			<path class="st5" d="M170.5,221.5v-6.1h0.9l3.1,4.3h0.1v-4.3h0.9v6.1h-0.9l-3.1-4.3h-0.1v4.3H170.5z"/>
			<path class="st5" d="M176.7,219.2c0-1.5,0.8-2.4,2.2-2.4c1.3,0,2.2,0.9,2.2,2.4c0,1.5-0.8,2.4-2.2,2.4
				C177.6,221.6,176.7,220.7,176.7,219.2z M180.2,219.2c0-1-0.4-1.6-1.2-1.6c-0.8,0-1.2,0.6-1.2,1.6c0,1,0.4,1.6,1.2,1.6
				C179.7,220.7,180.2,220.2,180.2,219.2z"/>
			<path class="st5" d="M183.4,215.7v1.2h1v0.8h-1v2.4c0,0.5,0.2,0.7,0.7,0.7c0.1,0,0.2,0,0.3,0v0.8c-0.1,0-0.3,0-0.5,0
				c-1,0-1.4-0.4-1.4-1.2v-2.6h-0.7v-0.8h0.7v-1.2H183.4z"/>
			<path class="st5" d="M185.4,215.5c0-0.3,0.3-0.6,0.6-0.6s0.6,0.2,0.6,0.6c0,0.3-0.2,0.6-0.6,0.6S185.4,215.8,185.4,215.5z
				 M185.5,216.9h0.9v4.6h-0.9V216.9z"/>
			<path class="st5" d="M188.1,217.6h-0.8v-0.8h0.8v-0.5c0-0.9,0.5-1.4,1.4-1.4c0.2,0,0.4,0,0.5,0v0.7c-0.1,0-0.2,0-0.4,0
				c-0.5,0-0.7,0.2-0.7,0.7v0.4h1v0.8h-1v3.8h-0.9V217.6z"/>
			<path class="st5" d="M191.1,223.1v-0.8c0.1,0,0.2,0,0.3,0c0.4,0,0.7-0.2,0.8-0.6l0.1-0.2l-1.7-4.6h1l1.2,3.7h0.1l1.2-3.7h1
				l-1.7,4.8c-0.4,1.1-0.8,1.5-1.8,1.5C191.4,223.1,191.2,223.1,191.1,223.1z"/>
			<path class="st5" d="M199.5,215.7v1.2h1v0.8h-1v2.4c0,0.5,0.2,0.7,0.7,0.7c0.1,0,0.2,0,0.3,0v0.8c-0.1,0-0.3,0-0.5,0
				c-1,0-1.4-0.4-1.4-1.2v-2.6h-0.7v-0.8h0.7v-1.2H199.5z"/>
			<path class="st5" d="M201.6,215h0.9v2.5h0.1c0.2-0.5,0.7-0.8,1.4-0.8c1,0,1.6,0.6,1.6,1.7v3h-0.9v-2.8c0-0.7-0.3-1.1-1-1.1
				c-0.7,0-1.2,0.5-1.2,1.2v2.7h-0.9V215z"/>
			<path class="st5" d="M210.8,220.2c-0.2,0.8-0.9,1.3-2,1.3c-1.3,0-2.1-0.9-2.1-2.4s0.8-2.4,2.1-2.4c1.3,0,2.1,0.9,2.1,2.3v0.3
				h-3.3v0.1c0,0.8,0.5,1.3,1.2,1.3c0.6,0,0.9-0.2,1.1-0.6H210.8z M207.6,218.7h2.3c0-0.7-0.5-1.2-1.1-1.2S207.6,218,207.6,218.7z"
				/>
		</g>
		<g class="st4">
			<path class="st5" d="M177,228.8c0-1.5,0.8-2.4,1.9-2.4c0.6,0,1.2,0.3,1.4,0.8h0.1v-2.5h0.9v6.4h-0.9v-0.7h-0.1
				c-0.3,0.5-0.8,0.8-1.5,0.8C177.7,231.2,177,230.3,177,228.8z M177.9,228.8c0,1,0.5,1.6,1.2,1.6c0.8,0,1.2-0.6,1.2-1.6
				c0-1-0.5-1.6-1.2-1.6C178.4,227.2,177.9,227.8,177.9,228.8z"/>
			<path class="st5" d="M186.6,229.9c-0.2,0.8-0.9,1.3-2,1.3c-1.3,0-2.1-0.9-2.1-2.4s0.8-2.4,2.1-2.4c1.3,0,2.1,0.9,2.1,2.3v0.3
				h-3.3v0.1c0,0.8,0.5,1.3,1.2,1.3c0.6,0,0.9-0.2,1.1-0.6H186.6z M183.4,228.4h2.3c0-0.7-0.5-1.2-1.1-1.2
				C183.9,227.2,183.4,227.7,183.4,228.4z"/>
			<path class="st5" d="M188.9,225.4v1.2h1v0.8h-1v2.4c0,0.5,0.2,0.7,0.7,0.7c0.1,0,0.2,0,0.3,0v0.8c-0.1,0-0.3,0-0.5,0
				c-1,0-1.4-0.4-1.4-1.2v-2.6h-0.7v-0.8h0.7v-1.2H188.9z"/>
			<path class="st5" d="M190.8,229.8c0-0.8,0.6-1.3,1.7-1.4l1.3-0.1V228c0-0.5-0.3-0.8-0.9-0.8c-0.5,0-0.9,0.2-1,0.5h-0.9
				c0.1-0.8,0.8-1.3,1.9-1.3c1.2,0,1.8,0.6,1.8,1.6v3.2h-0.9v-0.6h-0.1c-0.3,0.5-0.8,0.7-1.4,0.7
				C191.4,231.2,190.8,230.7,190.8,229.8z M193.7,229.4V229l-1.1,0.1c-0.6,0-0.9,0.3-0.9,0.7c0,0.4,0.4,0.7,0.9,0.7
				C193.2,230.4,193.7,230,193.7,229.4z"/>
			<path class="st5" d="M195.8,225.1c0-0.3,0.3-0.6,0.6-0.6s0.6,0.2,0.6,0.6c0,0.3-0.2,0.6-0.6,0.6S195.8,225.4,195.8,225.1z
				 M195.9,226.5h0.9v4.6h-0.9V226.5z"/>
			<path class="st5" d="M198.2,224.7h0.9v6.4h-0.9V224.7z"/>
			<path class="st5" d="M202.2,226.4c1,0,1.7,0.5,1.8,1.3h-0.9c-0.1-0.3-0.4-0.6-0.9-0.6c-0.5,0-0.9,0.2-0.9,0.6
				c0,0.3,0.2,0.5,0.7,0.6l0.8,0.2c0.9,0.2,1.3,0.6,1.3,1.3c0,0.9-0.8,1.5-1.9,1.5c-1.1,0-1.8-0.5-1.9-1.3h0.9
				c0.1,0.4,0.5,0.6,1,0.6c0.6,0,1-0.3,1-0.6c0-0.3-0.2-0.5-0.7-0.6l-0.8-0.2c-0.9-0.2-1.3-0.6-1.3-1.3
				C200.4,227,201.1,226.4,202.2,226.4z"/>
		</g>
		<g class="st4">
			<path class="st5" d="M268.8,50.8v-2.5l-2.2-3.7h1.1l1.5,2.7h0.1l1.5-2.7h1.1l-2.2,3.7v2.5H268.8z"/>
		</g>
		<g class="st4">
			<path class="st5" d="M276,49.6c-0.2,0.8-0.9,1.3-2,1.3c-1.3,0-2.1-0.9-2.1-2.4s0.8-2.4,2.1-2.4c1.3,0,2.1,0.9,2.1,2.3v0.3h-3.3
				v0.1c0,0.8,0.5,1.3,1.2,1.3c0.6,0,0.9-0.2,1.1-0.6H276z M272.8,48.1h2.3c0-0.7-0.5-1.2-1.1-1.2C273.4,46.9,272.9,47.4,272.8,48.1
				z"/>
			<path class="st5" d="M278.9,46.1c1,0,1.7,0.5,1.8,1.3h-0.9c-0.1-0.3-0.4-0.6-0.9-0.6c-0.5,0-0.9,0.2-0.9,0.6
				c0,0.3,0.2,0.5,0.7,0.6l0.8,0.2c0.9,0.2,1.3,0.6,1.3,1.3c0,0.9-0.8,1.5-1.9,1.5c-1.1,0-1.8-0.5-1.9-1.3h0.9
				c0.1,0.4,0.5,0.6,1,0.6c0.6,0,1-0.3,1-0.6c0-0.3-0.2-0.5-0.7-0.6l-0.8-0.2c-0.9-0.2-1.3-0.6-1.3-1.3
				C277.1,46.7,277.8,46.1,278.9,46.1z"/>
		</g>
		<g class="st4">
			<path class="st5" d="M234.4,166v-6.1h0.9l3.1,4.3h0.1v-4.3h0.9v6.1h-0.9l-3.1-4.3h-0.1v4.3H234.4z"/>
			<path class="st5" d="M240.5,163.7c0-1.5,0.8-2.4,2.2-2.4c1.3,0,2.2,0.9,2.2,2.4c0,1.5-0.8,2.4-2.2,2.4
				C241.4,166.1,240.5,165.2,240.5,163.7z M244,163.7c0-1-0.5-1.6-1.2-1.6c-0.8,0-1.2,0.6-1.2,1.6c0,1,0.4,1.6,1.2,1.6
				C243.5,165.3,244,164.7,244,163.7z"/>
		</g>
		<line class="st6" x1="90.1" y1="56.6" x2="159.1" y2="56.6"/>
		<line class="st6" x1="222" y1="56.6" x2="291" y2="56.6"/>
		<path class="st1" d="M31,256.8h55.4c2.1,0,3.8,1.7,3.8,3.8v55.4c0,2.1-1.7,3.8-3.8,3.8H31c-2.1,0-3.8-1.7-3.8-3.8v-55.4
			C27.2,258.5,28.9,256.8,31,256.8z"/>
		<g class="st4">
			<path class="st5" d="M25.9,336.8h-1v-6.1h2.4c1.2,0,2,0.7,2,1.9c0,0.8-0.4,1.5-1.2,1.7l1.4,2.5h-1.1l-1.2-2.3h-1.3V336.8z
				 M25.9,333.7h1.4c0.7,0,1.2-0.4,1.2-1.1c0-0.7-0.4-1.1-1.2-1.1h-1.3V333.7z"/>
		</g>
		<g class="st4">
			<path class="st5" d="M34.4,335.6c-0.2,0.8-0.9,1.3-2,1.3c-1.3,0-2.1-0.9-2.1-2.4s0.8-2.4,2.1-2.4c1.3,0,2.1,0.9,2.1,2.3v0.3h-3.3
				v0.1c0,0.8,0.5,1.3,1.2,1.3c0.6,0,0.9-0.2,1.1-0.6H34.4z M31.2,334.1h2.3c0-0.7-0.5-1.2-1.1-1.2
				C31.7,332.9,31.3,333.4,31.2,334.1z"/>
			<path class="st5" d="M36.8,331.1v1.2h1v0.8h-1v2.4c0,0.5,0.2,0.7,0.7,0.7c0.1,0,0.2,0,0.3,0v0.8c-0.1,0-0.3,0-0.5,0
				c-1,0-1.4-0.4-1.4-1.2V333h-0.7v-0.8h0.7v-1.2H36.8z"/>
			<path class="st5" d="M42.8,336.8h-0.9v-0.7h-0.1c-0.2,0.5-0.7,0.8-1.4,0.8c-1,0-1.6-0.6-1.6-1.7v-3h0.9v2.8c0,0.7,0.3,1.1,1,1.1
				c0.7,0,1.1-0.4,1.1-1.2v-2.7h0.9V336.8z"/>
		</g>
		<g class="st4">
			<path class="st5" d="M44.1,332.2H45v0.7H45c0.1-0.5,0.6-0.8,1.2-0.8c0.1,0,0.3,0,0.4,0v0.9c-0.1,0-0.3-0.1-0.5-0.1
				c-0.7,0-1.2,0.4-1.2,1.1v2.7h-0.9V332.2z"/>
		</g>
		<g class="st4">
			<path class="st5" d="M47.6,332.2h0.9v0.7h0.1c0.2-0.5,0.7-0.8,1.4-0.8c1,0,1.6,0.6,1.6,1.7v3h-0.9v-2.8c0-0.7-0.3-1.1-1-1.1
				c-0.7,0-1.1,0.5-1.1,1.2v2.7h-0.9V332.2z"/>
			<path class="st5" d="M55,334.5c0-1.5,0.8-2.4,2.2-2.4c1.3,0,2.2,0.9,2.2,2.4c0,1.5-0.8,2.4-2.2,2.4C55.8,336.9,55,336,55,334.5z
				 M58.4,334.5c0-1-0.4-1.6-1.2-1.6c-0.8,0-1.2,0.6-1.2,1.6c0,1,0.4,1.6,1.2,1.6C57.9,336.1,58.4,335.5,58.4,334.5z"/>
			<path class="st5" d="M60.4,332.2h0.9v0.7h0.1c0.1-0.5,0.6-0.8,1.2-0.8c0.1,0,0.3,0,0.4,0v0.9c-0.1,0-0.3-0.1-0.5-0.1
				c-0.7,0-1.2,0.4-1.2,1.1v2.7h-0.9V332.2z"/>
		</g>
		<g class="st4">
			<path class="st5" d="M66.3,332.2h0.9v0.7h0.1c0.1-0.5,0.6-0.8,1.2-0.8c0.1,0,0.3,0,0.4,0v0.9c-0.1,0-0.3-0.1-0.5-0.1
				c-0.7,0-1.2,0.4-1.2,1.1v2.7h-0.9V332.2z"/>
		</g>
		<g class="st4">
			<path class="st5" d="M73.5,335.6c-0.2,0.8-0.9,1.3-2,1.3c-1.3,0-2.1-0.9-2.1-2.4s0.8-2.4,2.1-2.4c1.3,0,2.1,0.9,2.1,2.3v0.3h-3.3
				v0.1c0,0.8,0.5,1.3,1.2,1.3c0.6,0,0.9-0.2,1.1-0.6H73.5z M70.3,334.1h2.3c0-0.7-0.5-1.2-1.1-1.2
				C70.8,332.9,70.4,333.4,70.3,334.1z"/>
			<path class="st5" d="M75,333h-0.8v-0.8H75v-0.5c0-0.9,0.5-1.4,1.4-1.4c0.2,0,0.4,0,0.5,0v0.7c-0.1,0-0.2,0-0.4,0
				c-0.5,0-0.7,0.2-0.7,0.7v0.4h1v0.8h-1v3.8H75V333z"/>
			<path class="st5" d="M81.9,336.8H81v-0.7h-0.1c-0.2,0.5-0.7,0.8-1.4,0.8c-1,0-1.6-0.6-1.6-1.7v-3h0.9v2.8c0,0.7,0.3,1.1,1,1.1
				c0.7,0,1.1-0.4,1.1-1.2v-2.7h0.9V336.8z"/>
			<path class="st5" d="M83.2,332.2H84v0.7h0.1c0.2-0.5,0.7-0.8,1.4-0.8c1,0,1.6,0.6,1.6,1.7v3h-0.9v-2.8c0-0.7-0.3-1.1-1-1.1
				c-0.7,0-1.1,0.5-1.1,1.2v2.7h-0.9V332.2z"/>
			<path class="st5" d="M88.1,334.5c0-1.5,0.8-2.4,1.9-2.4c0.6,0,1.2,0.3,1.4,0.8h0.1v-2.5h0.9v6.4h-0.9v-0.7h-0.1
				c-0.3,0.5-0.8,0.8-1.5,0.8C88.9,336.9,88.1,336,88.1,334.5z M89.1,334.5c0,1,0.5,1.6,1.2,1.6c0.8,0,1.2-0.6,1.2-1.6
				c0-1-0.5-1.6-1.2-1.6C89.6,333,89.1,333.6,89.1,334.5z"/>
		</g>
		<path class="st2" d="M73.1,284.2c0.4,1.3,0.5,2.6,0.5,4c0,8.3-6.7,15-15,15c-5,0-9.6-2.5-12.4-6.6"/>
		<path class="st2" d="M43.9,291c-0.2-0.9-0.3-1.9-0.3-2.8c0-8.3,6.7-15,15-15c4.7,0,9.2,2.2,12,6"/>
		<path class="st2" d="M65.4,291.3c1.7-3.7,0.1-8.1-3.6-9.9c-2.1-1-4.5-0.9-6.5,0.1"/>
		<path class="st2" d="M52.8,292.8c2.6,3.2,7.3,3.7,10.5,1.2c0.1-0.1,0.1-0.1,0.2-0.2"/>
		<path class="st2" d="M52.8,283.6c-1,1.3-1.6,2.9-1.6,4.6c0,0.5,0,0.9,0.1,1.4"/>
		<path class="st7" d="M59.3,292.2v1.2h-1.1v-1.2c-0.8-0.1-1.5-0.4-2.1-0.9l0.7-1.1c0.5,0.4,1.1,0.7,1.8,0.7c0.8,0,1.1-0.3,1.1-1
			c0-1.5-3.3-1.3-3.3-3.6c0-1.1,0.7-2,1.8-2.2V283h1.1v1.2c0.7,0.1,1.3,0.5,1.8,1l-0.8,0.9c-0.3-0.4-0.8-0.6-1.4-0.6
			c-0.6,0-1,0.3-1,0.9c0,1.3,3.3,1.1,3.3,3.5C61.3,291.1,60.4,292,59.3,292.2z"/>
		<polyline class="st2" points="70.8,273.5 70.8,279.4 64.9,279.4 		"/>
		<polyline class="st2" points="46.2,302.5 46.2,296.6 52,296.6 		"/>
		<polyline class="st6" points="256.5,56.6 256.5,172.8 222,172.8 		"/>
		<polyline class="st6" points="353.9,56.6 386,56.6 386,288.2 90.1,288.2 		"/>
		<path class="st1" d="M162.9,256.8h55.4c2.1,0,3.8,1.7,3.8,3.8v55.4c0,2.1-1.7,3.8-3.8,3.8h-55.4c-2.1,0-3.8-1.7-3.8-3.8v-55.4
			C159.1,258.5,160.8,256.8,162.9,256.8z"/>
		<path class="st2" d="M197.4,297.1v4.4c0,1.5-1.2,2.6-2.6,2.6h0h-14.6c-1.5,0-2.6-1.2-2.6-2.6v-20.7c0-1.5,1.2-2.6,2.6-2.6h14.6
			c1.5,0,2.6,1.2,2.6,2.6v0.7"/>
		<path class="st2" d="M183.6,278.1V275c0-1.5,1.2-2.6,2.6-2.6c0,0,0,0,0,0h14.6c1.5,0,2.6,1.2,2.6,2.6v20.7c0,1.5-1.2,2.6-2.6,2.6
			h-3.5"/>
		<circle class="st3" cx="191.8" cy="289.5" r="6.1"/>
		<line class="st3" x1="181.1" y1="300.3" x2="184.7" y2="296.6"/>
		<g class="st4">
			<path class="st5" d="M151.2,333.8c0,2-1.1,3.2-2.9,3.2c-1.8,0-2.9-1.2-2.9-3.2c0-2,1.1-3.2,2.9-3.2
				C150.1,330.6,151.2,331.8,151.2,333.8z M146.5,333.8c0,1.4,0.7,2.3,1.9,2.3c1.2,0,1.9-0.9,1.9-2.3c0-1.4-0.7-2.3-1.9-2.3
				C147.2,331.5,146.5,332.4,146.5,333.8z"/>
		</g>
		<g class="st4">
			<path class="st5" d="M152.7,333h-0.8v-0.8h0.8v-0.5c0-0.9,0.5-1.4,1.4-1.4c0.2,0,0.4,0,0.5,0v0.7c-0.1,0-0.2,0-0.4,0
				c-0.5,0-0.7,0.2-0.7,0.7v0.4h1v0.8h-1v3.8h-0.9V333z"/>
		</g>
		<g class="st4">
			<path class="st5" d="M156,333h-0.8v-0.8h0.8v-0.5c0-0.9,0.5-1.4,1.4-1.4c0.2,0,0.4,0,0.5,0v0.7c-0.1,0-0.2,0-0.4,0
				c-0.5,0-0.7,0.2-0.7,0.7v0.4h1v0.8h-1v3.8H156V333z"/>
		</g>
		<g class="st4">
			<path class="st5" d="M162.7,335.6c-0.2,0.8-0.9,1.3-2,1.3c-1.3,0-2.1-0.9-2.1-2.4s0.8-2.4,2.1-2.4c1.3,0,2.1,0.9,2.1,2.3v0.3
				h-3.3v0.1c0,0.8,0.5,1.3,1.2,1.3c0.6,0,0.9-0.2,1.1-0.6H162.7z M159.5,334.1h2.3c0-0.7-0.5-1.2-1.1-1.2
				C160,332.9,159.5,333.4,159.5,334.1z"/>
			<path class="st5" d="M163.8,332.2h0.9v0.7h0.1c0.1-0.5,0.6-0.8,1.2-0.8c0.1,0,0.3,0,0.4,0v0.9c-0.1,0-0.3-0.1-0.5-0.1
				c-0.7,0-1.2,0.4-1.2,1.1v2.7h-0.9V332.2z"/>
		</g>
		<g class="st4">
			<path class="st5" d="M170.9,331.1v1.2h1v0.8h-1v2.4c0,0.5,0.2,0.7,0.7,0.7c0.1,0,0.2,0,0.3,0v0.8c-0.1,0-0.3,0-0.5,0
				c-1,0-1.4-0.4-1.4-1.2V333h-0.7v-0.8h0.7v-1.2H170.9z"/>
		</g>
		<g class="st4">
			<path class="st5" d="M176.9,335.6c-0.2,0.8-0.9,1.3-2,1.3c-1.3,0-2.1-0.9-2.1-2.4s0.8-2.4,2.1-2.4c1.3,0,2.1,0.9,2.1,2.3v0.3
				h-3.3v0.1c0,0.8,0.5,1.3,1.2,1.3c0.6,0,0.9-0.2,1.1-0.6H176.9z M173.7,334.1h2.3c0-0.7-0.5-1.2-1.1-1.2
				C174.2,332.9,173.7,333.4,173.7,334.1z"/>
		</g>
		<g class="st4">
			<path class="st5" d="M179.7,332.1c1,0,1.7,0.5,1.8,1.3h-0.9c-0.1-0.3-0.4-0.6-0.9-0.6c-0.5,0-0.9,0.2-0.9,0.6
				c0,0.3,0.2,0.5,0.7,0.6l0.8,0.2c0.9,0.2,1.3,0.6,1.3,1.3c0,0.9-0.8,1.5-1.9,1.5c-1.1,0-1.8-0.5-1.9-1.3h0.9
				c0.1,0.4,0.5,0.6,1,0.6c0.6,0,1-0.3,1-0.6c0-0.3-0.2-0.5-0.7-0.6l-0.8-0.2c-0.9-0.2-1.3-0.6-1.3-1.3
				C177.9,332.7,178.6,332.1,179.7,332.1z"/>
		</g>
		<g class="st4">
			<path class="st5" d="M183.9,331.1v1.2h1v0.8h-1v2.4c0,0.5,0.2,0.7,0.7,0.7c0.1,0,0.2,0,0.3,0v0.8c-0.1,0-0.3,0-0.5,0
				c-1,0-1.4-0.4-1.4-1.2V333h-0.7v-0.8h0.7v-1.2H183.9z"/>
		</g>
		<g class="st4">
			<path class="st5" d="M188.3,332.2h0.9v0.7h0.1c0.1-0.5,0.6-0.8,1.2-0.8c0.1,0,0.3,0,0.4,0v0.9c-0.1,0-0.3-0.1-0.5-0.1
				c-0.7,0-1.2,0.4-1.2,1.1v2.7h-0.9V332.2z"/>
		</g>
		<g class="st4">
			<path class="st5" d="M195.6,335.6c-0.2,0.8-0.9,1.3-2,1.3c-1.3,0-2.1-0.9-2.1-2.4s0.8-2.4,2.1-2.4c1.3,0,2.1,0.9,2.1,2.3v0.3
				h-3.3v0.1c0,0.8,0.5,1.3,1.2,1.3c0.6,0,0.9-0.2,1.1-0.6H195.6z M192.4,334.1h2.3c0-0.7-0.5-1.2-1.1-1.2
				C192.9,332.9,192.4,333.4,192.4,334.1z"/>
			<path class="st5" d="M201,334.5c0,1.5-0.7,2.4-1.9,2.4c-0.7,0-1.2-0.3-1.4-0.8h-0.1v2.2h-0.9v-6.2h0.9v0.8h0.1
				c0.3-0.5,0.8-0.8,1.5-0.8C200.3,332.1,201,333.1,201,334.5z M200.1,334.5c0-1-0.5-1.6-1.2-1.6c-0.8,0-1.2,0.6-1.2,1.6
				c0,1,0.5,1.6,1.2,1.6C199.6,336.1,200.1,335.5,200.1,334.5z"/>
			<path class="st5" d="M201.9,334.5c0-1.5,0.8-2.4,2.2-2.4c1.3,0,2.2,0.9,2.2,2.4c0,1.5-0.8,2.4-2.2,2.4
				C202.7,336.9,201.9,336,201.9,334.5z M205.3,334.5c0-1-0.4-1.6-1.2-1.6c-0.8,0-1.2,0.6-1.2,1.6c0,1,0.4,1.6,1.2,1.6
				C204.9,336.1,205.3,335.5,205.3,334.5z"/>
		</g>
		<g class="st4">
			<path class="st5" d="M207.4,332.2h0.9v0.7h0.1c0.1-0.5,0.6-0.8,1.2-0.8c0.1,0,0.3,0,0.4,0v0.9c-0.1,0-0.3-0.1-0.5-0.1
				c-0.7,0-1.2,0.4-1.2,1.1v2.7h-0.9V332.2z"/>
		</g>
		<g class="st4">
			<path class="st5" d="M212.3,331.1v1.2h1v0.8h-1v2.4c0,0.5,0.2,0.7,0.7,0.7c0.1,0,0.2,0,0.3,0v0.8c-0.1,0-0.3,0-0.5,0
				c-1,0-1.4-0.4-1.4-1.2V333h-0.7v-0.8h0.7v-1.2H212.3z"/>
			<path class="st5" d="M216.5,335.5c0-0.8,0.6-1.3,1.7-1.4l1.3-0.1v-0.4c0-0.5-0.3-0.8-0.9-0.8c-0.5,0-0.9,0.2-1,0.5h-0.9
				c0.1-0.8,0.8-1.3,1.9-1.3c1.2,0,1.8,0.6,1.8,1.6v3.2h-0.9v-0.6h-0.1c-0.3,0.5-0.8,0.7-1.4,0.7
				C217.1,336.9,216.5,336.4,216.5,335.5z M219.5,335.1v-0.4l-1.1,0.1c-0.6,0-0.9,0.3-0.9,0.7c0,0.4,0.4,0.7,0.9,0.7
				C218.9,336.1,219.5,335.7,219.5,335.1z"/>
		</g>
		<g class="st4">
			<path class="st5" d="M222,333h-0.8v-0.8h0.8v-0.5c0-0.9,0.5-1.4,1.4-1.4c0.2,0,0.4,0,0.5,0v0.7c-0.1,0-0.2,0-0.4,0
				c-0.5,0-0.7,0.2-0.7,0.7v0.4h1v0.8h-1v3.8H222V333z"/>
		</g>
		<g class="st4">
			<path class="st5" d="M226.2,331.1v1.2h1v0.8h-1v2.4c0,0.5,0.2,0.7,0.7,0.7c0.1,0,0.2,0,0.3,0v0.8c-0.1,0-0.3,0-0.5,0
				c-1,0-1.4-0.4-1.4-1.2V333h-0.7v-0.8h0.7v-1.2H226.2z"/>
		</g>
		<g class="st4">
			<path class="st5" d="M232.1,335.6c-0.2,0.8-0.9,1.3-2,1.3c-1.3,0-2.1-0.9-2.1-2.4s0.8-2.4,2.1-2.4c1.3,0,2.1,0.9,2.1,2.3v0.3
				h-3.3v0.1c0,0.8,0.5,1.3,1.2,1.3c0.6,0,0.9-0.2,1.1-0.6H232.1z M228.9,334.1h2.3c0-0.7-0.5-1.2-1.1-1.2
				C229.4,332.9,229,333.4,228.9,334.1z"/>
			<path class="st5" d="M233.3,332.2h0.9v0.7h0.1c0.1-0.5,0.6-0.8,1.2-0.8c0.1,0,0.3,0,0.4,0v0.9c-0.1,0-0.3-0.1-0.5-0.1
				c-0.7,0-1.2,0.4-1.2,1.1v2.7h-0.9V332.2z"/>
		</g>
		<g class="st4">
			<path class="st5" d="M157.3,340.7v1.2h1v0.8h-1v2.4c0,0.5,0.2,0.7,0.7,0.7c0.1,0,0.2,0,0.3,0v0.8c-0.1,0-0.3,0-0.5,0
				c-1,0-1.4-0.4-1.4-1.2v-2.6h-0.7v-0.8h0.7v-1.2H157.3z"/>
		</g>
		<g class="st4">
			<path class="st5" d="M163.2,345.2c-0.2,0.8-0.9,1.3-2,1.3c-1.3,0-2.1-0.9-2.1-2.4s0.8-2.4,2.1-2.4c1.3,0,2.1,0.9,2.1,2.3v0.3H160
				v0.1c0,0.8,0.5,1.3,1.2,1.3c0.6,0,0.9-0.2,1.1-0.6H163.2z M160,343.8h2.3c0-0.7-0.5-1.2-1.1-1.2C160.5,342.6,160.1,343,160,343.8
				z"/>
		</g>
		<g class="st4">
			<path class="st5" d="M166.1,341.8c1,0,1.7,0.5,1.8,1.3H167c-0.1-0.3-0.4-0.6-0.9-0.6c-0.5,0-0.9,0.2-0.9,0.6
				c0,0.3,0.2,0.5,0.7,0.6l0.8,0.2c0.9,0.2,1.3,0.6,1.3,1.3c0,0.9-0.8,1.5-1.9,1.5c-1.1,0-1.8-0.5-1.9-1.3h0.9
				c0.1,0.4,0.5,0.6,1,0.6c0.6,0,1-0.3,1-0.6c0-0.3-0.2-0.5-0.7-0.6l-0.8-0.2c-0.9-0.2-1.3-0.6-1.3-1.3
				C164.3,342.4,165,341.8,166.1,341.8z"/>
		</g>
		<g class="st4">
			<path class="st5" d="M170.2,340.7v1.2h1v0.8h-1v2.4c0,0.5,0.2,0.7,0.7,0.7c0.1,0,0.2,0,0.3,0v0.8c-0.1,0-0.3,0-0.5,0
				c-1,0-1.4-0.4-1.4-1.2v-2.6h-0.7v-0.8h0.7v-1.2H170.2z"/>
			<path class="st5" d="M174.4,345.2c0-0.8,0.6-1.3,1.7-1.4l1.3-0.1v-0.4c0-0.5-0.3-0.8-0.9-0.8c-0.5,0-0.9,0.2-1,0.5h-0.9
				c0.1-0.8,0.8-1.3,1.9-1.3c1.2,0,1.8,0.6,1.8,1.6v3.2h-0.9v-0.6h-0.1c-0.3,0.5-0.8,0.7-1.4,0.7C175.1,346.6,174.4,346,174.4,345.2
				z M177.4,344.8v-0.4l-1.1,0.1c-0.6,0-0.9,0.3-0.9,0.7c0,0.4,0.4,0.7,0.9,0.7C176.9,345.8,177.4,345.4,177.4,344.8z"/>
			<path class="st5" d="M179.6,341.9h0.9v0.7h0.1c0.2-0.5,0.7-0.8,1.4-0.8c1,0,1.6,0.6,1.6,1.7v3h-0.9v-2.8c0-0.7-0.3-1.1-1-1.1
				s-1.1,0.5-1.1,1.2v2.7h-0.9V341.9z"/>
			<path class="st5" d="M184.6,344.2c0-1.5,0.8-2.4,1.9-2.4c0.6,0,1.2,0.3,1.4,0.8h0.1v-2.5h0.9v6.4H188v-0.7h-0.1
				c-0.3,0.5-0.8,0.8-1.5,0.8C185.3,346.6,184.6,345.6,184.6,344.2z M185.5,344.2c0,1,0.5,1.6,1.2,1.6c0.8,0,1.2-0.6,1.2-1.6
				c0-1-0.5-1.6-1.2-1.6C186,342.6,185.5,343.2,185.5,344.2z"/>
			<path class="st5" d="M192.4,345.2c0-0.8,0.6-1.3,1.7-1.4l1.3-0.1v-0.4c0-0.5-0.3-0.8-0.9-0.8c-0.5,0-0.9,0.2-1,0.5h-0.9
				c0.1-0.8,0.8-1.3,1.9-1.3c1.2,0,1.8,0.6,1.8,1.6v3.2h-0.9v-0.6h-0.1c-0.3,0.5-0.8,0.7-1.4,0.7C193,346.6,192.4,346,192.4,345.2z
				 M195.3,344.8v-0.4l-1.1,0.1c-0.6,0-0.9,0.3-0.9,0.7c0,0.4,0.4,0.7,0.9,0.7C194.8,345.8,195.3,345.4,195.3,344.8z"/>
			<path class="st5" d="M197.5,341.9h0.9v0.7h0.1c0.2-0.5,0.7-0.8,1.4-0.8c1,0,1.6,0.6,1.6,1.7v3h-0.9v-2.8c0-0.7-0.3-1.1-1-1.1
				s-1.1,0.5-1.1,1.2v2.7h-0.9V341.9z"/>
			<path class="st5" d="M202.5,345.2c0-0.8,0.6-1.3,1.7-1.4l1.3-0.1v-0.4c0-0.5-0.3-0.8-0.9-0.8c-0.5,0-0.9,0.2-1,0.5h-0.9
				c0.1-0.8,0.8-1.3,1.9-1.3c1.2,0,1.8,0.6,1.8,1.6v3.2h-0.9v-0.6h-0.1c-0.3,0.5-0.8,0.7-1.4,0.7C203.1,346.6,202.5,346,202.5,345.2
				z M205.4,344.8v-0.4l-1.1,0.1c-0.6,0-0.9,0.3-0.9,0.7c0,0.4,0.4,0.7,0.9,0.7C204.9,345.8,205.4,345.4,205.4,344.8z"/>
			<path class="st5" d="M207.7,340.1h0.9v6.4h-0.9V340.1z"/>
		</g>
		<g class="st4">
			<path class="st5" d="M210,348.1v-0.8c0.1,0,0.2,0,0.3,0c0.4,0,0.7-0.2,0.8-0.6l0.1-0.2l-1.7-4.6h1l1.2,3.7h0.1l1.2-3.7h1
				l-1.7,4.8c-0.4,1.1-0.8,1.5-1.8,1.5C210.3,348.2,210.1,348.2,210,348.1z"/>
		</g>
		<g class="st4">
			<path class="st5" d="M216.4,341.8c1,0,1.7,0.5,1.8,1.3h-0.9c-0.1-0.3-0.4-0.6-0.9-0.6c-0.5,0-0.9,0.2-0.9,0.6
				c0,0.3,0.2,0.5,0.7,0.6l0.8,0.2c0.9,0.2,1.3,0.6,1.3,1.3c0,0.9-0.8,1.5-1.9,1.5c-1.1,0-1.8-0.5-1.9-1.3h0.9
				c0.1,0.4,0.5,0.6,1,0.6c0.6,0,1-0.3,1-0.6c0-0.3-0.2-0.5-0.7-0.6l-0.8-0.2c-0.9-0.2-1.3-0.6-1.3-1.3
				C214.6,342.4,215.4,341.8,216.4,341.8z"/>
			<path class="st5" d="M219.3,340.5c0-0.3,0.2-0.6,0.6-0.6c0.3,0,0.6,0.2,0.6,0.6c0,0.3-0.2,0.6-0.6,0.6
				C219.5,341.1,219.3,340.8,219.3,340.5z M219.4,341.9h0.9v4.6h-0.9V341.9z"/>
			<path class="st5" d="M223.3,341.8c1,0,1.7,0.5,1.8,1.3h-0.9c-0.1-0.3-0.4-0.6-0.9-0.6c-0.5,0-0.9,0.2-0.9,0.6
				c0,0.3,0.2,0.5,0.7,0.6l0.8,0.2c0.9,0.2,1.3,0.6,1.3,1.3c0,0.9-0.8,1.5-1.9,1.5c-1.1,0-1.8-0.5-1.9-1.3h0.9
				c0.1,0.4,0.5,0.6,1,0.6c0.6,0,1-0.3,1-0.6c0-0.3-0.2-0.5-0.7-0.6l-0.8-0.2c-0.9-0.2-1.3-0.6-1.3-1.3
				C221.5,342.4,222.3,341.8,223.3,341.8z"/>
		</g>
		<path class="st1" d="M294.7,256.8h55.4c2.1,0,3.8,1.7,3.8,3.8v55.4c0,2.1-1.7,3.8-3.8,3.8h-55.4c-2.1,0-3.8-1.7-3.8-3.8v-55.4
			C291,258.5,292.6,256.8,294.7,256.8z"/>
		<line class="st2" x1="325.3" y1="294" x2="323.4" y2="294"/>
		<path class="st2" d="M310,294h-1.4c-0.7,0-1.2-0.5-1.2-1.2v0v-17.5c0-0.7,0.5-1.2,1.2-1.2c0,0,0,0,0,0h17.1c0.7,0,1.2,0.5,1.2,1.2
			c0,0,0,0,0,0v14.2"/>
		<path class="st2" d="M319.4,301.4c-1.8,1.4-4.4,1.2-5.9-0.6c-1.4-1.8-1.2-4.4,0.6-5.9c1.8-1.4,4.4-1.2,5.9,0.6
			c0.6,0.7,0.9,1.6,0.9,2.5"/>
		<path class="st2" d="M326.9,277.9h3.5c0.5,0,0.9,0.2,1.2,0.6l1.2,1.4l1.5,1.9l3.1,3.7v7.7"/>
		<line class="st3" x1="311" y1="280.1" x2="313.6" y2="277.5"/>
		<line class="st3" x1="312.4" y1="285.2" x2="318.6" y2="279"/>
		<line class="st2" x1="337.4" y1="285.5" x2="330.9" y2="285.5"/>
		<circle class="st2" cx="331.4" cy="298.1" r="4.2"/>
		<g class="st4">
			<path class="st5" d="M258.2,333.8c0-2,1.1-3.2,2.8-3.2c1.3,0,2.4,0.9,2.5,2.1h-0.9c-0.2-0.8-0.8-1.2-1.6-1.2
				c-1.1,0-1.8,0.9-1.8,2.3c0,1.4,0.7,2.3,1.8,2.3c0.8,0,1.4-0.4,1.6-1.1h0.9c-0.2,1.2-1.2,2-2.5,2
				C259.2,337,258.2,335.8,258.2,333.8z"/>
			<path class="st5" d="M268.5,336.8h-0.9v-0.7h-0.1c-0.2,0.5-0.7,0.8-1.4,0.8c-1,0-1.6-0.6-1.6-1.7v-3h0.9v2.8c0,0.7,0.3,1.1,1,1.1
				c0.7,0,1.1-0.4,1.1-1.2v-2.7h0.9V336.8z"/>
		</g>
		<g class="st4">
			<path class="st5" d="M271.5,332.1c1,0,1.7,0.5,1.8,1.3h-0.9c-0.1-0.3-0.4-0.6-0.9-0.6c-0.5,0-0.9,0.2-0.9,0.6
				c0,0.3,0.2,0.5,0.7,0.6l0.8,0.2c0.9,0.2,1.3,0.6,1.3,1.3c0,0.9-0.8,1.5-1.9,1.5c-1.1,0-1.8-0.5-1.9-1.3h0.9
				c0.1,0.4,0.5,0.6,1,0.6c0.6,0,1-0.3,1-0.6c0-0.3-0.2-0.5-0.7-0.6l-0.8-0.2c-0.9-0.2-1.3-0.6-1.3-1.3
				C269.7,332.7,270.5,332.1,271.5,332.1z"/>
		</g>
		<g class="st4">
			<path class="st5" d="M275.7,331.1v1.2h1v0.8h-1v2.4c0,0.5,0.2,0.7,0.7,0.7c0.1,0,0.2,0,0.3,0v0.8c-0.1,0-0.3,0-0.5,0
				c-1,0-1.4-0.4-1.4-1.2V333h-0.7v-0.8h0.7v-1.2H275.7z"/>
		</g>
		<g class="st4">
			<path class="st5" d="M277.5,334.5c0-1.5,0.8-2.4,2.2-2.4c1.3,0,2.2,0.9,2.2,2.4c0,1.5-0.8,2.4-2.2,2.4
				C278.3,336.9,277.5,336,277.5,334.5z M280.9,334.5c0-1-0.4-1.6-1.2-1.6c-0.8,0-1.2,0.6-1.2,1.6c0,1,0.4,1.6,1.2,1.6
				C280.5,336.1,280.9,335.5,280.9,334.5z"/>
			<path class="st5" d="M282.9,332.2h0.9v0.7h0.1c0.2-0.5,0.7-0.8,1.3-0.8c0.6,0,1.1,0.3,1.3,0.8h0.1c0.2-0.5,0.8-0.8,1.4-0.8
				c0.9,0,1.5,0.6,1.5,1.5v3.2h-0.9v-2.9c0-0.6-0.3-0.9-0.9-0.9c-0.6,0-1,0.4-1,1v2.9h-0.9v-3c0-0.5-0.3-0.8-0.9-0.8
				c-0.6,0-1,0.5-1,1v2.8h-0.9V332.2z"/>
			<path class="st5" d="M294.6,335.6c-0.2,0.8-0.9,1.3-2,1.3c-1.3,0-2.1-0.9-2.1-2.4s0.8-2.4,2.1-2.4c1.3,0,2.1,0.9,2.1,2.3v0.3
				h-3.3v0.1c0,0.8,0.5,1.3,1.2,1.3c0.6,0,0.9-0.2,1.1-0.6H294.6z M291.4,334.1h2.3c0-0.7-0.5-1.2-1.1-1.2S291.4,333.4,291.4,334.1z
				"/>
		</g>
		<g class="st4">
			<path class="st5" d="M295.7,332.2h0.9v0.7h0.1c0.1-0.5,0.6-0.8,1.2-0.8c0.1,0,0.3,0,0.4,0v0.9c-0.1,0-0.3-0.1-0.5-0.1
				c-0.7,0-1.2,0.4-1.2,1.1v2.7h-0.9V332.2z"/>
		</g>
		<g class="st4">
			<path class="st5" d="M300.8,332.1c1,0,1.7,0.5,1.8,1.3h-0.9c-0.1-0.3-0.4-0.6-0.9-0.6c-0.5,0-0.9,0.2-0.9,0.6
				c0,0.3,0.2,0.5,0.7,0.6l0.8,0.2c0.9,0.2,1.3,0.6,1.3,1.3c0,0.9-0.8,1.5-1.9,1.5c-1.1,0-1.8-0.5-1.9-1.3h0.9
				c0.1,0.4,0.5,0.6,1,0.6c0.6,0,1-0.3,1-0.6c0-0.3-0.2-0.5-0.7-0.6l-0.8-0.2c-0.9-0.2-1.3-0.6-1.3-1.3
				C299,332.7,299.8,332.1,300.8,332.1z"/>
		</g>
		<g class="st4">
			<path class="st5" d="M306.2,332.2h0.9v0.7h0.1c0.1-0.5,0.6-0.8,1.2-0.8c0.1,0,0.3,0,0.4,0v0.9c-0.1,0-0.3-0.1-0.5-0.1
				c-0.7,0-1.2,0.4-1.2,1.1v2.7h-0.9V332.2z"/>
		</g>
		<g class="st4">
			<path class="st5" d="M313.4,335.6c-0.2,0.8-0.9,1.3-2,1.3c-1.3,0-2.1-0.9-2.1-2.4s0.8-2.4,2.1-2.4c1.3,0,2.1,0.9,2.1,2.3v0.3
				h-3.3v0.1c0,0.8,0.5,1.3,1.2,1.3c0.6,0,0.9-0.2,1.1-0.6H313.4z M310.2,334.1h2.3c0-0.7-0.5-1.2-1.1-1.2S310.3,333.4,310.2,334.1z
				"/>
			<path class="st5" d="M315.8,331.1v1.2h1v0.8h-1v2.4c0,0.5,0.2,0.7,0.7,0.7c0.1,0,0.2,0,0.3,0v0.8c-0.1,0-0.3,0-0.5,0
				c-1,0-1.4-0.4-1.4-1.2V333h-0.7v-0.8h0.7v-1.2H315.8z"/>
			<path class="st5" d="M321.8,336.8h-0.9v-0.7h-0.1c-0.2,0.5-0.7,0.8-1.4,0.8c-1,0-1.6-0.6-1.6-1.7v-3h0.9v2.8c0,0.7,0.3,1.1,1,1.1
				c0.7,0,1.1-0.4,1.1-1.2v-2.7h0.9V336.8z"/>
		</g>
		<g class="st4">
			<path class="st5" d="M323.1,332.2h0.9v0.7h0.1c0.1-0.5,0.6-0.8,1.2-0.8c0.1,0,0.3,0,0.4,0v0.9c-0.1,0-0.3-0.1-0.5-0.1
				c-0.7,0-1.2,0.4-1.2,1.1v2.7h-0.9V332.2z"/>
		</g>
		<g class="st4">
			<path class="st5" d="M326.6,332.2h0.9v0.7h0.1c0.2-0.5,0.7-0.8,1.4-0.8c1,0,1.6,0.6,1.6,1.7v3h-0.9v-2.8c0-0.7-0.3-1.1-1-1.1
				c-0.7,0-1.1,0.5-1.1,1.2v2.7h-0.9V332.2z"/>
			<path class="st5" d="M335.4,331.1v1.2h1v0.8h-1v2.4c0,0.5,0.2,0.7,0.7,0.7c0.1,0,0.2,0,0.3,0v0.8c-0.1,0-0.3,0-0.5,0
				c-1,0-1.4-0.4-1.4-1.2V333h-0.7v-0.8h0.7v-1.2H335.4z"/>
			<path class="st5" d="M337.6,330.4h0.9v2.5h0.1c0.2-0.5,0.7-0.8,1.4-0.8c1,0,1.6,0.6,1.6,1.7v3h-0.9v-2.8c0-0.7-0.3-1.1-1-1.1
				c-0.7,0-1.2,0.5-1.2,1.2v2.7h-0.9V330.4z"/>
			<path class="st5" d="M346.7,335.6c-0.2,0.8-0.9,1.3-2,1.3c-1.3,0-2.1-0.9-2.1-2.4s0.8-2.4,2.1-2.4c1.3,0,2.1,0.9,2.1,2.3v0.3
				h-3.3v0.1c0,0.8,0.5,1.3,1.2,1.3c0.6,0,0.9-0.2,1.1-0.6H346.7z M343.5,334.1h2.3c0-0.7-0.5-1.2-1.1-1.2
				C344,332.9,343.6,333.4,343.5,334.1z"/>
			<path class="st5" d="M354.6,334.5c0,1.5-0.7,2.4-1.9,2.4c-0.7,0-1.2-0.3-1.4-0.8h-0.1v2.2h-0.9v-6.2h0.9v0.8h0.1
				c0.3-0.5,0.8-0.8,1.5-0.8C353.8,332.1,354.6,333.1,354.6,334.5z M353.6,334.5c0-1-0.5-1.6-1.2-1.6c-0.8,0-1.2,0.6-1.2,1.6
				c0,1,0.5,1.6,1.2,1.6C353.2,336.1,353.6,335.5,353.6,334.5z"/>
		</g>
		<g class="st4">
			<path class="st5" d="M355.6,332.2h0.9v0.7h0.1c0.1-0.5,0.6-0.8,1.2-0.8c0.1,0,0.3,0,0.4,0v0.9c-0.1,0-0.3-0.1-0.5-0.1
				c-0.7,0-1.2,0.4-1.2,1.1v2.7h-0.9V332.2z"/>
		</g>
		<g class="st4">
			<path class="st5" d="M358.8,334.5c0-1.5,0.8-2.4,2.2-2.4c1.3,0,2.2,0.9,2.2,2.4c0,1.5-0.8,2.4-2.2,2.4
				C359.6,336.9,358.8,336,358.8,334.5z M362.2,334.5c0-1-0.4-1.6-1.2-1.6c-0.8,0-1.2,0.6-1.2,1.6c0,1,0.4,1.6,1.2,1.6
				C361.7,336.1,362.2,335.5,362.2,334.5z"/>
			<path class="st5" d="M364,334.5c0-1.5,0.8-2.4,1.9-2.4c0.6,0,1.2,0.3,1.4,0.8h0.1v-2.5h0.9v6.4h-0.9v-0.7h-0.1
				c-0.3,0.5-0.8,0.8-1.5,0.8C364.7,336.9,364,336,364,334.5z M364.9,334.5c0,1,0.5,1.6,1.2,1.6c0.8,0,1.2-0.6,1.2-1.6
				c0-1-0.5-1.6-1.2-1.6C365.4,333,364.9,333.6,364.9,334.5z"/>
			<path class="st5" d="M373.6,336.8h-0.9v-0.7h-0.1c-0.2,0.5-0.7,0.8-1.4,0.8c-1,0-1.6-0.6-1.6-1.7v-3h0.9v2.8c0,0.7,0.3,1.1,1,1.1
				c0.7,0,1.1-0.4,1.1-1.2v-2.7h0.9V336.8z"/>
		</g>
		<g class="st4">
			<path class="st5" d="M377.9,333.7c-0.1-0.4-0.5-0.8-1.1-0.8c-0.8,0-1.2,0.6-1.2,1.6c0,1,0.5,1.6,1.2,1.6c0.6,0,1-0.3,1.1-0.8h0.9
				c-0.1,0.9-0.8,1.6-2,1.6c-1.3,0-2.2-0.9-2.2-2.4c0-1.5,0.8-2.4,2.2-2.4c1.2,0,1.9,0.7,2,1.6H377.9z"/>
		</g>
		<g class="st4">
			<path class="st5" d="M381.1,331.1v1.2h1v0.8h-1v2.4c0,0.5,0.2,0.7,0.7,0.7c0.1,0,0.2,0,0.3,0v0.8c-0.1,0-0.3,0-0.5,0
				c-1,0-1.4-0.4-1.4-1.2V333h-0.7v-0.8h0.7v-1.2H381.1z"/>
		</g>
		<g class="st4">
			<path class="st5" d="M384.8,332.1c1,0,1.7,0.5,1.8,1.3h-0.9c-0.1-0.3-0.4-0.6-0.9-0.6c-0.5,0-0.9,0.2-0.9,0.6
				c0,0.3,0.2,0.5,0.7,0.6l0.8,0.2c0.9,0.2,1.3,0.6,1.3,1.3c0,0.9-0.8,1.5-1.9,1.5c-1.1,0-1.8-0.5-1.9-1.3h0.9
				c0.1,0.4,0.5,0.6,1,0.6c0.6,0,1-0.3,1-0.6c0-0.3-0.2-0.5-0.7-0.6l-0.8-0.2c-0.9-0.2-1.3-0.6-1.3-1.3
				C383,332.7,383.8,332.1,384.8,332.1z"/>
		</g>
		<g class="st4">
			<path class="st5" d="M279.2,345.2c0-0.8,0.6-1.3,1.7-1.4l1.3-0.1v-0.4c0-0.5-0.3-0.8-0.9-0.8c-0.5,0-0.9,0.2-1,0.5h-0.9
				c0.1-0.8,0.8-1.3,1.9-1.3c1.2,0,1.8,0.6,1.8,1.6v3.2h-0.9v-0.6h-0.1c-0.3,0.5-0.8,0.7-1.4,0.7C279.9,346.6,279.2,346,279.2,345.2
				z M282.2,344.8v-0.4l-1.1,0.1c-0.6,0-0.9,0.3-0.9,0.7c0,0.4,0.4,0.7,0.9,0.7C281.7,345.8,282.2,345.4,282.2,344.8z"/>
			<path class="st5" d="M284.4,340.1h0.9v6.4h-0.9V340.1z"/>
			<path class="st5" d="M286.5,344.2c0-1.5,0.8-2.4,2.2-2.4c1.3,0,2.2,0.9,2.2,2.4c0,1.5-0.8,2.4-2.2,2.4
				C287.3,346.6,286.5,345.7,286.5,344.2z M289.9,344.2c0-1-0.4-1.6-1.2-1.6c-0.8,0-1.2,0.6-1.2,1.6c0,1,0.4,1.6,1.2,1.6
				C289.5,345.8,289.9,345.2,289.9,344.2z"/>
			<path class="st5" d="M291.9,341.9h0.9v0.7h0.1c0.2-0.5,0.7-0.8,1.4-0.8c1,0,1.6,0.6,1.6,1.7v3h-0.9v-2.8c0-0.7-0.3-1.1-1-1.1
				c-0.7,0-1.1,0.5-1.1,1.2v2.7h-0.9V341.9z"/>
			<path class="st5" d="M297.1,347h0.9c0.1,0.3,0.5,0.6,1.1,0.6c0.8,0,1.2-0.4,1.2-1v-0.9h-0.1c-0.3,0.5-0.8,0.8-1.4,0.8
				c-1.2,0-1.9-0.9-1.9-2.3c0-1.4,0.7-2.3,1.9-2.3c0.6,0,1.2,0.3,1.5,0.8h0.1v-0.7h0.9v4.7c0,1.1-0.8,1.7-2.1,1.7
				C297.9,348.3,297.2,347.7,297.1,347z M300.3,344.1c0-0.9-0.5-1.5-1.3-1.5c-0.8,0-1.2,0.6-1.2,1.5c0,0.9,0.4,1.5,1.2,1.5
				C299.9,345.6,300.3,345,300.3,344.1z"/>
			<path class="st5" d="M309.7,346.5h-0.9l-1-3.4h-0.1l-1,3.4h-0.9l-1.3-4.6h0.9l0.8,3.5h0.1l1-3.5h0.9l1,3.5h0.1l0.8-3.5h0.9
				L309.7,346.5z"/>
			<path class="st5" d="M311.7,340.5c0-0.3,0.3-0.6,0.6-0.6c0.3,0,0.6,0.2,0.6,0.6c0,0.3-0.2,0.6-0.6,0.6
				C312,341.1,311.7,340.8,311.7,340.5z M311.9,341.9h0.9v4.6h-0.9V341.9z"/>
			<path class="st5" d="M315.4,340.7v1.2h1v0.8h-1v2.4c0,0.5,0.2,0.7,0.7,0.7c0.1,0,0.2,0,0.3,0v0.8c-0.1,0-0.3,0-0.5,0
				c-1,0-1.4-0.4-1.4-1.2v-2.6h-0.7v-0.8h0.7v-1.2H315.4z"/>
			<path class="st5" d="M317.5,340.1h0.9v2.5h0.1c0.2-0.5,0.7-0.8,1.4-0.8c1,0,1.6,0.6,1.6,1.7v3h-0.9v-2.8c0-0.7-0.3-1.1-1-1.1
				c-0.7,0-1.2,0.5-1.2,1.2v2.7h-0.9V340.1z"/>
			<path class="st5" d="M326.2,346.5h-1v-6.1h2.4c1.2,0,2,0.7,2,1.9c0,0.8-0.4,1.5-1.2,1.7l1.4,2.5h-1.1l-1.2-2.3h-1.3V346.5z
				 M326.2,343.3h1.4c0.7,0,1.2-0.4,1.2-1.1c0-0.7-0.4-1.1-1.2-1.1h-1.3V343.3z"/>
			<path class="st5" d="M336.3,346.5v-4.4h-0.1l-1.8,4.2h-0.7l-1.8-4.2h-0.1v4.4H331v-6.1h1.1l1.9,4.6h0.1l2-4.6h1.1v6.1H336.3z"/>
			<path class="st5" d="M342.1,344.9h-2.3l-0.6,1.6h-1l2.2-6.1h1l2.2,6.1h-1L342.1,344.9z M340,344.1h1.8l-0.9-2.6h-0.1L340,344.1z"
				/>
		</g>
		<g class="st4">
			<path class="st5" d="M347.4,342.7h-0.8v-0.8h0.8v-0.5c0-0.9,0.5-1.4,1.4-1.4c0.2,0,0.4,0,0.5,0v0.7c-0.1,0-0.2,0-0.4,0
				c-0.5,0-0.7,0.2-0.7,0.7v0.4h1v0.8h-1v3.8h-0.9V342.7z"/>
		</g>
		<g class="st4">
			<path class="st5" d="M349.9,344.2c0-1.5,0.8-2.4,2.2-2.4c1.3,0,2.2,0.9,2.2,2.4c0,1.5-0.8,2.4-2.2,2.4
				C350.7,346.6,349.9,345.7,349.9,344.2z M353.3,344.2c0-1-0.5-1.6-1.2-1.6c-0.8,0-1.2,0.6-1.2,1.6c0,1,0.4,1.6,1.2,1.6
				C352.9,345.8,353.3,345.2,353.3,344.2z"/>
		</g>
		<g class="st4">
			<path class="st5" d="M355.4,341.9h0.9v0.7h0.1c0.1-0.5,0.6-0.8,1.2-0.8c0.1,0,0.3,0,0.4,0v0.9c-0.1,0-0.3-0.1-0.5-0.1
				c-0.7,0-1.2,0.4-1.2,1.1v2.7h-0.9V341.9z"/>
		</g>
		<g class="st4">
			<path class="st5" d="M358.9,341.9h0.9v0.7h0.1c0.2-0.5,0.7-0.8,1.3-0.8c0.6,0,1.1,0.3,1.3,0.8h0.1c0.2-0.5,0.8-0.8,1.4-0.8
				c0.9,0,1.5,0.6,1.5,1.5v3.2h-0.9v-2.9c0-0.6-0.3-0.9-0.9-0.9c-0.6,0-1,0.4-1,1v2.9h-0.9v-3c0-0.5-0.3-0.8-0.9-0.8
				c-0.6,0-1,0.5-1,1v2.8h-0.9V341.9z"/>
		</g>
	</g>
</g>
</svg>
